<svg xmlns="http://www.w3.org/2000/svg" width="45" height="45" viewBox="-1.5 -14 45 45" fill="#fff"><path d="M5.167 1.862h-.03A1 1 0 0 1 4.167.833l.047-1.66A2.69 2.69 0 0 1 6.791-3.46h1.616c1.458.014 2.666 1.155 2.758 2.598l.002 1.725a1 1 0 1 1-2 0V-.8c-.024-.34-.363-.658-.77-.662H6.833c-.323.015-.614.313-.62.676L6.166.9a1 1 0 0 1-.999.972z"/><path d="M36.74 25.123H5.26c-2.813 0-4.426-1.5-4.426-4.14V3.725c0-1.762.752-3.863 4.333-3.863h10a.67.67 0 0 0 .528-.27l.772-1.05C18.2-3.822 19.14-5.123 21-5.123h8.334c2.457 0 3.643 2.532 4.595 4.566.126.268.363.418.62.418h2.2c3.658 0 4.426 2.1 4.426 3.863v17.26c0 2.63-1.613 4.14-4.426 4.14zM21-3.123c-.803 0-1.376.73-2.918 2.842l-.78 1.06a2.68 2.68 0 0 1-2.131 1.082H5.167c-2.155 0-2.333.88-2.333 1.863v17.26c0 1.5.726 2.14 2.426 2.14h31.48c2.138 0 2.426-1.08 2.426-2.14V3.725c0-.98-.186-1.863-2.426-1.863h-2.2c-1.03 0-1.978-.602-2.415-1.534-.803-1.715-1.616-3.45-2.8-3.45H21zM25.166 21.8C19.56 21.8 15 17.252 15 11.662s4.56-10.14 10.166-10.14 10.168 4.548 10.168 10.14S30.772 21.8 25.166 21.8zm0-18.276c-4.503 0-8.166 3.65-8.166 8.14s3.663 8.137 8.166 8.137 8.168-3.65 8.168-8.137-3.664-8.14-8.168-8.14zm0 14.122a6 6 0 0 1-6-5.984 6 6 0 1 1 12 0 6 6 0 0 1-6 5.984zm0-9.97a4 4 0 0 0-4 3.985c0 2.197 1.794 3.984 4 3.984s4-1.787 4-3.984-1.794-3.985-4-3.985zm-17.5 2.494a3.5 3.5 0 0 1-3.5-3.492 3.5 3.5 0 1 1 7 0 3.5 3.5 0 0 1-3.5 3.492zm0-4.984a1.5 1.5 0 0 0-1.5 1.492 1.5 1.5 0 1 0 3 0 1.5 1.5 0 0 0-1.5-1.492z"/></svg>