<svg xmlns="http://www.w3.org/2000/svg" width="45" height="45" viewBox="13 16 45 45" fill="#fff"><path d="M45.743 58.26H14.08a1.07 1.07 0 0 1-1.071-1.071V51.8c0-2.75 1.646-5.186 4.196-6.204l7.9-3.16v-3.303c-.964-.62-2.555-2.14-2.77-5.48-.726-.462-1.178-1.42-1.178-2.64 0-1.097.367-1.984.97-2.487-.45-1.615-1.195-4.443.012-6.033.375-.494 1.1-1.082 2.432-1.047 1.158-1.986 4.22-2.717 6.73-2.717 2.856 0 6.428.946 7.094 3.615.548 2.2-.23 4.756-.7 6.202.587.507.944 1.385.944 2.467 0 1.218-.452 2.176-1.178 2.64-.214 3.34-1.806 4.86-2.77 5.48v3.302l7.893 3.14a6.64 6.64 0 0 1 4.215 6.209v5.394c-.001.6-.48 1.07-1.072 1.07zM15.15 56.116h29.522v-4.322a4.51 4.51 0 0 0-2.862-4.217l-8.57-3.4c-.407-.162-.675-.557-.675-.996V38.5c0-.46.294-.87.73-1.017.066-.025 2.063-.827 2.063-4.6a1.07 1.07 0 0 1 .98-1.067c.065-.104.174-.38.174-.8s-.108-.698-.174-.802a1.07 1.07 0 0 1-.98-1.067c0-.276.084-.542.27-1.123.36-1.13 1.112-3.48.694-5.16-.283-1.135-2.44-2-5.014-2s-4.73.855-5.014 2a1.07 1.07 0 0 1-1.25.791c-.22-.044-.418-.066-.6-.066-.447 0-.557.146-.6.2-.6.8.14 3.434.384 4.302.154.552.225.803.225 1.055 0 .283-.113.557-.314.758-.18.178-.415.287-.666.3-.066.104-.175.38-.175.802s.1.696.175.8c.55.048.98.508.98 1.068 0 3.763 1.996 4.564 2.08 4.597a1.1 1.1 0 0 1 .712 1.01v4.67a1.07 1.07 0 0 1-.674.996L18 47.598a4.51 4.51 0 0 0-2.848 4.214v4.304zm32.044-14.378a15.21 15.21 0 0 1-1.563-.081 1.08 1.08 0 0 1-.953-1.18 1.07 1.07 0 0 1 1.177-.953 12.61 12.61 0 0 0 7.445-1.51c-1.07-1.274-1.75-2.922-2.038-7.18-.477-7.068-5.088-9.586-9.245-9.586a9.97 9.97 0 0 0-1.246.078 1.06 1.06 0 0 1-1.196-.93 1.07 1.07 0 0 1 .929-1.196c.5-.063 1-.095 1.514-.095 4.9 0 10.807 3.033 11.384 11.584.282 4.192.928 5.25 1.62 6.04a2.01 2.01 0 0 1 .473 1.634 2 2 0 0 1-.95 1.41 14.74 14.74 0 0 1-7.35 1.964z"/><path d="M56.92 58.26H50.4a1.07 1.07 0 1 1 0-2.142h5.448v-2.7c.152-2.204-.836-4.287-2.58-5.5a35.98 35.98 0 0 0-6.629-3.346c-1-.308-1.794-1.236-1.957-2.34a1.17 1.17 0 0 1-.011-.156V39.16c0-.95.746-1.636 1.104-1.965a4.73 4.73 0 0 0 1.688-3.51v-3.07a11.79 11.79 0 0 1-6.259-3.785 1.07 1.07 0 1 1 1.622-1.4c1.507 1.747 3.59 2.897 5.867 3.24.524.08.913.53.913 1.06v3.98c-.045 1.98-.925 3.828-2.415 5.092-.29.268-.37.396-.392.445l.013 2.72a.78.78 0 0 0 .523.569c2.53.96 4.906 2.16 7.126 3.593 2.4 1.674 3.728 4.486 3.523 7.363l.003 3.695c.003.592-.476 1.072-1.068 1.072z"/></svg>