<svg xmlns="http://www.w3.org/2000/svg" width="45" height="45" viewBox="-1.5 -3 45 45" fill="#fff"><path d="M21 41.168C9.88 41.168.833 32.12.833 21S9.88.835 21 .835s20.166 9.047 20.166 20.167S32.12 41.168 21 41.168zm0-38.333c-10.017 0-18.167 8.15-18.167 18.167S10.983 39.168 21 39.168A18.19 18.19 0 0 0 39.166 21 18.19 18.19 0 0 0 21 2.835zm10 29.167c-.256 0-.512-.098-.707-.293l-8.238-8.236a1 1 0 0 1 1.414-1.414l8.238 8.236a1 1 0 0 1 0 1.414c-.195.195-.45.293-.707.293z"/><path d="M21 24.502c-1.93 0-3.5-1.57-3.5-3.5s1.57-3.5 3.5-3.5 3.5 1.57 3.5 3.5-1.57 3.5-3.5 3.5zm0-5a1.5 1.5 0 1 0 0 3 1.5 1.5 0 1 0 0-3z"/><path d="M21 19.5a1 1 0 0 1-1-1v-6.667a1 1 0 1 1 2 0V18.5a1 1 0 0 1-1 1z"/></svg>