<svg xmlns="http://www.w3.org/2000/svg" xmlns:xlink="http://www.w3.org/1999/xlink" width="175" height="175"><g fill="#fff"><path d="M117.073 151.73a2.25 2.25 0 0 1-2.249-2.25v-31.148H94.81a2.25 2.25 0 1 1 0-4.5h22.266a2.25 2.25 0 0 1 2.25 2.25v27.967l29.558-29.558a2.25 2.25 0 0 1 1.591-.659h11.09a8.94 8.94 0 0 0 8.927-8.928V15.887c0-4.898-3.984-8.883-8.883-8.883H72.543c-4.898 0-8.883 3.985-8.883 8.883v33.398a2.25 2.25 0 1 1-4.5 0V15.887c0-7.38 6.003-13.383 13.383-13.383h89.062c7.38 0 13.383 6.003 13.383 13.383v89.018c0 7.404-6.023 13.428-13.427 13.428h-10.157l-32.74 32.74a2.25 2.25 0 0 1-1.592.658z"/><use xlink:href="#B"/><use xlink:href="#B" x="-55.665"/><use xlink:href="#B" x="-27.833"/><path d="M50.278 123.898c-15.053 0-27.3-12.246-27.3-27.3s12.246-27.3 27.3-27.3 27.3 12.247 27.3 27.3-12.246 27.298-27.3 27.298zm0-50.097c-12.57 0-22.8 10.228-22.8 22.8s10.228 22.8 22.8 22.8 22.8-10.228 22.8-22.8-10.228-22.8-22.8-22.8zm44.528 100.195a2.25 2.25 0 0 1-2.227-1.95c-2.836-21.1-21.02-36.994-42.3-36.994s-39.465 15.904-42.3 36.994c-.166 1.232-1.3 2.093-2.53 1.93a2.25 2.25 0 0 1-1.93-2.529c3.135-23.313 23.238-40.895 46.76-40.895s43.626 17.58 46.76 40.895a2.25 2.25 0 0 1-1.93 2.529 2.38 2.38 0 0 1-.302.02z"/></g><defs ><path id="B" d="M147.69 66.13a5.72 5.72 0 0 1-5.711-5.711 5.72 5.72 0 0 1 5.711-5.711 5.72 5.72 0 0 1 5.711 5.711 5.72 5.72 0 0 1-5.711 5.711zm0-7.422c-.943 0-1.71.768-1.71 1.71s.768 1.71 1.71 1.71 1.71-.768 1.71-1.71-.767-1.71-1.71-1.71z"/></defs></svg>