<svg xmlns="http://www.w3.org/2000/svg" width="48" height="48" fill="#fff"><path d="M31.234 40.97c-.097 0-.194-.02-.287-.057a.75.75 0 0 1-.463-.693v-8.234h-5.24a.75.75 0 1 1 0-1.5h6a.75.75 0 0 1 .75.75V38.4l7.704-7.704a.75.75 0 0 1 .53-.22H43.2a2.26 2.26 0 0 0 2.257-2.256V4.284a2.25 2.25 0 0 0-2.245-2.245H19.256a2.25 2.25 0 0 0-2.245 2.245v8.984a.75.75 0 1 1-1.5 0V4.284A3.75 3.75 0 0 1 19.256.539h23.958a3.75 3.75 0 0 1 3.745 3.745V28.23c0 2.07-1.686 3.756-3.757 3.756H40.53l-8.765 8.765c-.143.144-.334.22-.53.22zm8.236-23.2a1.5 1.5 0 0 1-1.5-1.499 1.5 1.5 0 0 1 1.499-1.497 1.5 1.5 0 0 1 1.498 1.498 1.5 1.5 0 0 1-1.497 1.498zm0-1.996a.5.5 0 0 0-.5.498.5.5 0 0 0 .498.498h.002a.5.5 0 0 0 .497-.498.5.5 0 0 0-.497-.498zm-7.487 1.996a1.49 1.49 0 0 1-1.5-1.5 1.5 1.5 0 0 1 1.498-1.496 1.5 1.5 0 0 1 1.499 1.498 1.5 1.5 0 0 1-1.497 1.498zm0-1.996a.5.5 0 0 0-.499.498c0 .133.052.257.146.352a.49.49 0 0 0 .352.146h.002a.5.5 0 0 0 .498-.498.5.5 0 0 0-.499-.498zm-7.487 1.996a1.49 1.49 0 0 1-1.061-.439 1.48 1.48 0 0 1-.438-1.06 1.5 1.5 0 0 1 1.498-1.497 1.5 1.5 0 0 1 1.499 1.498 1.5 1.5 0 0 1-1.498 1.498zm0-1.996a.5.5 0 0 0-.499.498c0 .133.052.258.146.352s.22.146.352.146h.002a.5.5 0 0 0 .498-.498.5.5 0 0 0-.499-.498zM1.288 46.96c-.033 0-.067-.002-.1-.007a.75.75 0 0 1-.643-.843 12.87 12.87 0 0 1 11.01-11.01 12.75 12.75 0 0 1 9.498 2.515 12.75 12.75 0 0 1 4.937 8.495.75.75 0 1 1-1.487.199 11.26 11.26 0 0 0-4.36-7.501c-2.408-1.837-5.387-2.627-8.388-2.222a11.37 11.37 0 0 0-9.724 9.723.75.75 0 0 1-.742.651zm11.978-13.476a7.5 7.5 0 0 1-7.488-7.488 7.5 7.5 0 0 1 7.488-7.488 7.5 7.5 0 0 1 7.488 7.488 7.5 7.5 0 0 1-7.488 7.488zm0-13.476c-3.302 0-5.988 2.687-5.988 5.988a6 6 0 0 0 5.988 5.988 6 6 0 0 0 5.988-5.988 6 6 0 0 0-5.988-5.988z"/></svg>