<svg xmlns="http://www.w3.org/2000/svg" width="28" height="28" viewBox="8.438 12.542 28 28" fill="#aed4f4"><path d="M38.686 32.8h-22.65v-.752a.6.6 0 0 0-.6-.602h-3.2a.6.6 0 0 0-.601.602v.752H6.2v3.496h5.447v.752a.6.6 0 0 0 .601.6h3.2a.6.6 0 0 0 .6-.6v-.752h22.648V32.8zm-.083-7.552h-5.447v-.752a.6.6 0 0 0-.602-.599h-3.2a.6.6 0 0 0-.6.599v.752H6.106v3.496h22.648v.752a.6.6 0 0 0 .6.6h3.2a.6.6 0 0 0 .602-.6v-.752h5.447v-3.496zM6.2 20.904h14.048v.752a.6.6 0 0 0 .601.601h3.2a.6.6 0 0 0 .601-.601v-.752h14.048V17.4h-14.05v-.752a.6.6 0 0 0-.601-.601h-3.2a.6.6 0 0 0-.601.601v.752H6.2v3.495z"/></svg>