<svg xmlns="http://www.w3.org/2000/svg" width="45" height="45" viewBox="1 2 45 45" fill="#fff"><path d="M20.66 41.32C9.82 41.32 1 32.5 1 21.66S9.82 2 20.66 2s19.66 8.82 19.66 19.66-8.82 19.66-19.66 19.66zm0-37.867c-10.04 0-18.208 8.168-18.208 18.208S10.62 39.867 20.66 39.867 38.867 31.7 38.867 21.66 30.7 3.452 20.66 3.452zM15.74 27.54c-2.18 0-4.3-.558-6.23-1.638a1.67 1.67 0 0 1-.822-1.146c-.092-.488.035-.986.348-1.368.6-.716 1.218-1.723 1.476-5.52.5-7.52 5.716-10.188 10.022-10.188s9.514 2.668 10.022 10.188c.26 3.798.868 4.805 1.47 5.5.32.4.448.9.357 1.375a1.68 1.68 0 0 1-.82 1.146c-2.302 1.295-4.902 1.838-7.525 1.574-.4-.04-.7-.396-.65-.794s.404-.695.795-.65a11.21 11.21 0 0 0 6.664-1.394.23.23 0 0 0 .109-.153c.01-.06-.006-.127-.046-.176-.94-1.104-1.54-2.5-1.802-6.343-.44-6.514-4.718-8.834-8.575-8.834s-8.133 2.32-8.575 8.834c-.26 3.843-.86 5.24-1.8 6.354-.03.038-.047.104-.035.167s.052.12.1.152c2.033 1.145 4.338 1.63 6.66 1.393.398-.044.754.25.794.65s-.25.755-.65.794c-.43.046-.86.067-1.3.067z"/><path d="M10.415 32.262c-.286 0-.557-.17-.672-.45-.152-.37.025-.794.396-.946l4.543-1.73 1.08-.398c.283-.103.472-.37.474-.665v-2.6a.7.7 0 0 0-.23-.521 5.89 5.89 0 0 1-1.926-4.384v-2.08a2.58 2.58 0 0 1 1.839-2.485 8.58 8.58 0 0 0 3.449-2.056c.65-.614 1.653-.613 2.292-.008a8.61 8.61 0 0 0 3.476 2.07 2.58 2.58 0 0 1 1.836 2.485v2.083c.013 1.658-.687 3.254-1.916 4.375-.146.133-.23.323-.23.52v2.614a.71.71 0 0 0 .47.658l1.34.496 4.3 1.635c.37.152.548.576.395.947s-.576.55-.948.395l-4.238-1.615-1.34-.494a2.17 2.17 0 0 1-1.421-2.017v-2.62c0-.605.257-1.187.705-1.595a4.42 4.42 0 0 0 1.442-3.296v-2.087a1.14 1.14 0 0 0-.81-1.097c-1.52-.467-2.923-1.302-4.058-2.412-.07-.07-.2-.07-.28.01-1.12 1.097-2.518 1.93-4.03 2.396a1.14 1.14 0 0 0-.813 1.097v2.083c-.007 1.26.522 2.463 1.45 3.306.45.4.707.992.706 1.597v2.613c-.006.905-.58 1.716-1.426 2.023l-1.078.397-4.495 1.7a.77.77 0 0 1-.276.052zM45.274 47a.72.72 0 0 1-.514-.213L33.535 35.562c-.283-.283-.283-.742 0-1.026s.743-.283 1.026 0l11.226 11.226c.284.284.284.743 0 1.026-.14.14-.327.212-.513.212z"/></svg>