<svg xmlns="http://www.w3.org/2000/svg" width="45" height="45" viewBox="6 0 45 45" fill="#fff"><path d="M38.887 27.06h-7.554a.78.78 0 1 1 0-1.562h7.554a1.11 1.11 0 0 0 1.108-1.108V22.5a1.11 1.11 0 0 0-1.108-1.107H18.113a1.11 1.11 0 0 0-1.107 1.107v1.888a1.11 1.11 0 0 0 1.107 1.108h7.554a.78.78 0 1 1 0 1.562h-7.554c-1.473 0-2.67-1.198-2.67-2.67V22.5c0-1.473 1.198-2.67 2.67-2.67h20.774c1.473 0 2.67 1.197 2.67 2.67v1.888c0 1.472-1.2 2.67-2.67 2.67z"/><path d="M35.24 40.278H21.76a2.68 2.68 0 0 1-2.668-2.48l-.814-11.465a.78.78 0 0 1 .78-.837h6.6a.78.78 0 1 1 0 1.562h-5.77l.754 10.628a1.11 1.11 0 0 0 1.104 1.029h13.48c.584 0 1.068-.45 1.1-1.03l.76-10.628h-5.77a.78.78 0 1 1 0-1.562h6.6c.217 0 .425.1.57.25s.224.37.208.588l-.82 11.465a2.68 2.68 0 0 1-2.663 2.48z"/><path d="M25.667 40.278a.78.78 0 0 1-.781-.781V20.6a.78.78 0 0 1 .781-.781c.43 0 .782.35.782.78v18.886a.78.78 0 0 1-.782.781zm5.666 0a.78.78 0 0 1-.781-.781V20.6a.781.781 0 1 1 1.562 0v18.886a.78.78 0 0 1-.781.781z"/><path d="M28.5 21.393a.84.84 0 0 1-.186-.021c-.95-.232-5.753-1.453-6.98-2.687a3.71 3.71 0 0 1 .002-5.236 3.68 3.68 0 0 1 5.238 0c1.23 1.226 2.452 6.027 2.685 6.978.064.266-.015.545-.207.738-.15.148-.348.228-.553.228zm-4.544-7.466a2.13 2.13 0 0 0-1.514.627c-.834.834-.834 2.192 0 3.027.554.557 2.922 1.367 4.962 1.936-.568-2.04-1.378-4.41-1.934-4.962a2.12 2.12 0 0 0-1.514-.628z"/><path d="M28.5 21.393a.78.78 0 0 1-.759-.967c.232-.95 1.452-5.753 2.686-6.98.927-.926 2.307-1.298 3.575-.957 1.274.34 2.277 1.345 2.62 2.618a3.71 3.71 0 0 1-.958 3.577c-1.226 1.232-6.027 2.453-6.978 2.686-.06.015-.123.022-.185.022zm4.545-7.466a2.13 2.13 0 0 0-1.515.627c-.556.554-1.366 2.922-1.936 4.963 2.04-.568 4.4-1.38 4.962-1.935A2.15 2.15 0 0 0 33.597 14a2.11 2.11 0 0 0-.552-.073zm-4.545-4.8a.78.78 0 0 1-.782-.782V5.502a.781.781 0 1 1 1.563 0v2.833a.78.78 0 0 1-.781.782zm13.354 5.53a.78.78 0 0 1-.552-1.333l2.004-2.002a.781.781 0 1 1 1.104 1.105l-2.004 2.002a.78.78 0 0 1-.552.228zM50.22 27.06h-2.833a.781.781 0 1 1 0-1.562h2.833a.781.781 0 1 1 0 1.562zM15.146 14.648a.77.77 0 0 1-.552-.23l-1.994-2a.781.781 0 1 1 1.105-1.105l2.004 2.002a.78.78 0 0 1-.553 1.334zM9.614 27.06H6.78a.781.781 0 1 1 0-1.562h2.833a.781.781 0 1 1 0 1.562z"/></svg>