<svg id="Layer_1" data-name="Layer 1" xmlns="http://www.w3.org/2000/svg" width="104" height="98" viewBox="0 0 104 98">
  <defs>
    <style>
      .cls-1 {
        fill: none;
        stroke: #a5caff;
        stroke-linecap: round;
        stroke-linejoin: round;
        stroke-width: 2px;
      }
    </style>
  </defs>
  <title>icon-intro</title>
  <g id="Group">
    <g id="monitor-code-send">
      <path id="Shape" class="cls-1" d="M14.71,18.51h87.74"/>
      <path class="cls-1" d="M27.87,8.71A1.09,1.09,0,1,0,29,9.8a1.1,1.1,0,0,0-1.1-1.09h0"/>
      <path class="cls-1" d="M36.65,8.71A1.09,1.09,0,1,0,37.74,9.8a1.09,1.09,0,0,0-1.09-1.09h0"/>
      <path class="cls-1" d="M45.42,8.71a1.09,1.09,0,1,0,1.1,1.09,1.09,1.09,0,0,0-1.1-1.09h0"/>
      <path class="cls-1" d="M14.71,40.29V9.8a8.74,8.74,0,0,1,8.77-8.71h70.2a8.74,8.74,0,0,1,8.77,8.71V57.71a8.74,8.74,0,0,1-8.77,8.71H58.58"/>
      <path id="Rectangle-path" class="cls-1" d="M2.55,53.36H44.42a1,1,0,0,1,1,1V95.91a1,1,0,0,1-1,1H2.55a1,1,0,0,1-1-1V54.35A1,1,0,0,1,2.55,53.36Z"/>
      <path class="cls-1" d="M19.1,62.07,30.06,73l-11,10.88"/>
      <path class="cls-1" d="M56.39,96.91h14c3.64,0,5.76-4.56,5.76-8.17V75.13"/>
      <path class="cls-1" d="M84.9,83.84l-8.77-8.71-8.78,8.71"/>
    </g>
  </g>
</svg>
