<svg xmlns="http://www.w3.org/2000/svg" width="48" height="52" fill="none" stroke="#fff" stroke-linecap="round" stroke-linejoin="round" stroke-width="1.5"><path d="M14.1 27.373v1.622m19.47-1.622v1.622m9.738-4.868c0-4.327-38.942-4.327-38.942 0v-3.245c0-8.654 38.942-8.654 38.942 0v3.245z"/><path d="M33.563 3.4c7.678 3.183 12.98 9.56 12.98 14.247a14.44 14.44 0 0 1-2.345 8.239m-41.106.127a16.336 16.336 0 0 1-1.981-8.366c0-3.5 5.3-10.385 12.94-13.963M18.957 7.9l1.623-6.5 3.245 3.245L27.07 1.4l1.623 6.5m-4.866 32.17c1.752 1.755 5.644 1.902 8.4 1.75.297-.015 2.713-.672.202-3.184-2.947-5.894-13.963-6.527-17.226 0-2.326 2.325-.387 3.152.2 3.184 2.766.154 6.658.005 8.413-1.75zM4.356 24.127v1.623a3.245 3.245 0 1 0 0 6.49c.028 0 .054-.015.082-.017a19.46 19.46 0 0 0 38.78 0c.028 0 .052.017.08.017a3.245 3.245 0 1 0 0-6.49v-1.623"/></svg>