<svg xmlns="http://www.w3.org/2000/svg" width="49" height="52" fill="none" stroke="#fff" stroke-linecap="round" stroke-linejoin="round"><path d="M7.45 20.854c2.725 0 4.934-2.192 4.934-4.896s-2.2-4.896-4.934-4.896-4.934 2.192-4.934 4.896 2.2 4.896 4.934 4.896zM18.967 50.23a3.292 3.292 0 0 1-2.948-1.805l-1.47-2.92a3.272 3.272 0 0 0-2.931-1.804H7.452c-1.816 0-3.29-1.46-3.29-3.264V27.382a3.26 3.26 0 0 1 1.735-2.88 3.31 3.31 0 0 1 3.376.16l2.448 1.62a6.615 6.615 0 0 0 3.65 1.088h3.6c1.817 0 3.3 1.46 3.3 3.264s-1.473 3.264-3.3 3.264h-3.6a13.168 13.168 0 0 1-4.63-.823v4.1h.877c3.74-.012 7.162 2.086 8.826 5.41l1.47 2.92a3.242 3.242 0 0 1-.142 3.175 3.295 3.295 0 0 1-2.795 1.55h-.01zM7.45 43.7H.872m18.1-9.79h23.024m-11.512 0v16.32M28.83 27.382h13.157l4.933-11.424" stroke-width="1.5"/><path d="M28.83 15.142c-.606 0-1.097.487-1.097 1.088s.49 1.088 1.097 1.088 1.096-.487 1.096-1.088-.5-1.088-1.096-1.088"/><path d="M23.02 10.188a8.27 8.27 0 0 1 11.622 0m-16.28-4.615a14.86 14.86 0 0 1 20.932-.001M5.805 50.23V43.7" stroke-width="1.5"/></svg>