<svg xmlns="http://www.w3.org/2000/svg" width="107.37" height="42" fill="#fff"><path d="M55.8 4.47h-1.84v5H52.7v-5h-1.8v-1h4.9zm8.45 5.03H63V6.9h-2.4v2.6h-1.25v-6h1.25v2.4H63V3.47h1.24zm7.55-2.62h-2.4V8.5h2.8v1h-4.05v-6h4v1H69.4v1.4h2.4zM52.9 17.6l1.55 4.4L56 17.63h1.63v6h-1.25V22l.13-2.84-1.63 4.5h-.85l-1.63-4.5.13 2.84v1.65H51.3v-6zM65 22.4h-2.17l-.42 1.24h-1.3l2.25-6h1.15l2.25 6h-1.32zm-1.84-1h1.5l-.76-2.26zm8.88.73l1.36-4.53h1.4l-2.1 6h-1.3l-2.1-6h1.38zM81.8 21h-2.38v1.6h2.8v1h-4.07v-6h4v1h-2.73V20h2.38zm8.87 2.63h-1.24l-2.42-4v4h-1.24v-6H87l2.43 4v-4h1.23zm-36 12.9H52.5l-.4 1.24h-1.32l2.24-6h1.14l2.26 6h-1.26zm-1.84-1h1.5l-.75-2.25zm11.6.23a2.14 2.14 0 0 1-.72 1.53 2.48 2.48 0 0 1-1.71.56 2.26 2.26 0 0 1-1.82-.78 3.21 3.21 0 0 1-.67-2.14v-.37a3.66 3.66 0 0 1 .31-1.55 2.38 2.38 0 0 1 .88-1 2.5 2.5 0 0 1 1.32-.35 2.45 2.45 0 0 1 1.68.56 2.27 2.27 0 0 1 .74 1.57h-1.24a1.26 1.26 0 0 0-.33-.85 1.23 1.23 0 0 0-.85-.26 1.08 1.08 0 0 0-.93.44 2.51 2.51 0 0 0-.32 1.38v.5a2.65 2.65 0 0 0 .3 1.43 1 1 0 0 0 .93.45 1.24 1.24 0 0 0 .86-.26 1.22 1.22 0 0 0 .33-.82zm7.05.77h-2.2l-.4 1.24h-1.32l2.24-6h1.15l2.26 6H71.9zm-1.84-1h1.5l-.76-2.25zm6.96 2.24v-6h1.85a2.78 2.78 0 0 1 1.42.36 2.47 2.47 0 0 1 1 1 3.08 3.08 0 0 1 .36 1.5v.28a3.12 3.12 0 0 1-.35 1.49 2.47 2.47 0 0 1-1 1 2.78 2.78 0 0 1-1.42.36zm1.24-5v4h.6a1.34 1.34 0 0 0 1.11-.47 2.17 2.17 0 0 0 .4-1.37v-.3a2.23 2.23 0 0 0-.38-1.4 1.38 1.38 0 0 0-1.12-.47zm10.72 2.4h-2.43v1.6h2.8v1h-4v-6h4v1h-2.8v1.44h2.4zm5.57-3.42l1.55 4.37 1.54-4.37h1.63v6h-1.25V36.1l.13-2.84-1.6 4.5h-.85l-1.63-4.5.13 2.84v1.65h-1.25v-6zm10.6 2.72l1.25-2.72h1.36l-2 3.84v2.2h-1.22v-2.2l-2-3.84h1.36zM40.48 42H1.53A1.53 1.53 0 0 1 0 40.47V1.53A1.53 1.53 0 0 1 1.53 0h38.95A1.52 1.52 0 0 1 42 1.53v38.94A1.52 1.52 0 0 1 40.48 42zM1.53 1.2a.34.34 0 0 0-.34.34v38.94a.34.34 0 0 0 .34.34h38.95a.34.34 0 0 0 .34-.34V1.53a.34.34 0 0 0-.34-.34zm12.62 24.9a.55.55 0 0 1-.32-.1.56.56 0 0 1-.15-.78l7.1-10.4a.57.57 0 0 1 .79-.15.57.57 0 0 1 .14.79l-7.1 10.4a.57.57 0 0 1-.47.25z"/><path d="M28.72 26.1a.57.57 0 0 1-.47-.25l-7.1-10.4c-.177-.257-.112-.608.145-.785s.608-.112.785.145l7.07 10.4A.57.57 0 0 1 29 26a.55.55 0 0 1-.28.1zm-5.65-2.02h-3.54a.57.57 0 0 1 0-1.13h3.54a.57.57 0 0 1 0 1.13z"/></svg>