<svg xmlns="http://www.w3.org/2000/svg" width="45" height="45" viewBox="-3 -6 45 45" fill="#fff"><path d="M29.435 38.973c-.48 0-.925-.277-1.2-.76l-4.875-8.245a1 1 0 0 1 .352-1.369 1 1 0 0 1 1.369.352l4.213 7.123 1.446-3.977c.165-.454.63-.72 1.106-.645l4.162.704L31.57 24.5a1 1 0 1 1 1.732-1l5.083 8.803c.307.527.308 1.104.002 1.537s-.843.626-1.444.515l-4.62-.78-1.607 4.417c-.2.57-.645.94-1.166.987-.038.004-.077.005-.115.005zm-19.87.001a1.14 1.14 0 0 1-.116-.006c-.522-.05-.958-.418-1.165-.987l-1.608-4.417-4.636.784c-.583.107-1.125-.085-1.43-.518s-.304-1 .003-1.54l5.082-8.8a1 1 0 1 1 1.733 1l-4.427 7.666 4.163-.704a1.02 1.02 0 0 1 1.106.645l1.448 3.978 4.212-7.115a1 1 0 1 1 1.721 1.019l-4.875 8.234c-.286.482-.733.76-1.212.76zm10.747-20.697a1 1 0 0 1-1-1V10.34l-1.65 1.238a1 1 0 1 1-1.2-1.6l1.95-1.462a1.8 1.8 0 0 1 2.9 1.45v7.313a1 1 0 0 1-1 .999z"/><path d="M21.933 18.277h-3.25a1 1 0 1 1 0-2h3.25a1 1 0 1 1 0 2zm-2.437 9.75a5.49 5.49 0 0 1-4.709-2.635 5.58 5.58 0 0 1-5.189-1.469 5.49 5.49 0 0 1-1.468-5.189 5.49 5.49 0 0 1-2.634-4.708 5.49 5.49 0 0 1 2.633-4.708 5.49 5.49 0 0 1 1.469-5.194c1.353-1.352 3.355-1.906 5.195-1.464A5.49 5.49 0 0 1 19.501.029a5.49 5.49 0 0 1 4.708 2.632 5.57 5.57 0 0 1 5.19 1.467 5.49 5.49 0 0 1 1.469 5.19 5.49 5.49 0 0 1 2.633 4.709c0 1.958-1 3.72-2.638 4.7.447 1.85-.086 3.806-1.468 5.188a5.49 5.49 0 0 1-3.907 1.619 5.55 5.55 0 0 1-1.282-.15 5.5 5.5 0 0 1-4.71 2.634zm-4.203-4.853a1 1 0 0 1 .929.631c.536 1.35 1.82 2.223 3.274 2.223a3.5 3.5 0 0 0 3.273-2.223 1.01 1.01 0 0 1 .547-.555 1 1 0 0 1 .778.005 3.49 3.49 0 0 0 1.392.288c.942 0 1.828-.367 2.494-1.033 1.026-1.026 1.318-2.55.744-3.884a1 1 0 0 1 .55-1.326 3.5 3.5 0 0 0 2.226-3.273c0-1.453-.872-2.738-2.22-3.274a1.01 1.01 0 0 1-.555-.546.99.99 0 0 1 .005-.778c.574-1.333.282-2.86-.745-3.886C26.98 4.54 25.4 4.235 24.1 4.8a.99.99 0 0 1-.778.005c-.25-.105-.446-.304-.546-.555a3.51 3.51 0 0 0-3.274-2.221c-1.452 0-2.737.872-3.274 2.22-.1.252-.297.452-.547.555a1.01 1.01 0 0 1-.78-.006 3.56 3.56 0 0 0-3.889.742c-1.028 1.027-1.32 2.553-.745 3.888a1 1 0 0 1 .005.779c-.104.25-.303.447-.554.546a3.5 3.5 0 0 0-2.222 3.274 3.5 3.5 0 0 0 2.222 3.274 1 1 0 0 1 .55 1.325c-.574 1.333-.282 2.858.745 3.885a3.56 3.56 0 0 0 3.886.745c.125-.054.26-.08.394-.08z"/></svg>