<svg xmlns="http://www.w3.org/2000/svg" width="149" height="161"><style><![CDATA[.B{stroke-linejoin:round}.C{stroke-linecap:round}]]></style><g fill="none" stroke="#fff" stroke-width="4.5" class="B"><path d="M44.007 85.313v5.063m60.953-5.063v5.063" class="C"/><path d="M135.444 75.188c0-13.5-121.906-13.5-121.906 0V65.063c0-27 121.906-27 121.906 0v10.125z"/><path d="M104.967 10.5c24.036 9.93 40.635 29.828 40.635 44.45a44.94 44.94 0 0 1-7.341 25.704M9.583 81.04a50.83 50.83 0 0 1-6.204-26.102c0-10.95 16.56-32.4 40.514-43.564m15.353 13.19l5.08-20.25 10.16 10.125 10.16-10.125 5.08 20.25" class="C"/><path d="M74.49 124.935c5.486 5.474 17.67 5.933 26.332 5.46.928-.047 8.493-2.1.63-9.936-9.224-18.387-43.7-20.365-53.923 0-7.28 7.256-1.212 9.835.623 9.936 8.662.48 20.846.014 26.34-5.46z"/><path d="M13.538 75.188v5.062c-5.61 0-10.16 4.533-10.16 10.125S7.927 100.5 13.538 100.5c.088 0 .17-.047.257-.054 2.608 31.48 29.005 55.708 60.7 55.708s58.092-24.226 60.7-55.708c.088 0 .162.054.25.054 5.61 0 10.16-4.533 10.16-10.125s-4.548-10.125-10.16-10.125v-5.062" class="C"/></g></svg>