<svg xmlns="http://www.w3.org/2000/svg" viewBox="0 0 60 46"><path d="M22.4 29.4a6.49 6.49 0 0 1-6.5-6.5 6.49 6.49 0 0 1 6.5-6.5c2.7 0 5.1 1.6 6.1 4.1h12.2c.4 0 .8.2 1 .5l2 3.1c.2.4.2.9-.1 1.2l-2.5 2.4c-.3.3-.9.3-1.2 0l-1.6-1.5-1.6 1.5c-.3.3-.9.3-1.2 0L33 25.4c-.1-.1-.2-.1-.3-.1h-4.2c-1 2.4-3.4 4.1-6.1 4.1zm0-12c-3 0-5.5 2.5-5.5 5.5s2.5 5.5 5.5 5.5c2.4 0 4.5-1.5 5.3-3.8l.1-.3h4.9c.3 0 .7.2 1 .4l2.4 2.2 1.6-1.5c.3-.3.9-.3 1.2 0l1.6 1.5 2.4-2.2-2-3-.1-.1h-13l-.1-.3c-.8-2.4-2.9-3.9-5.3-3.9zm13.5 9.5zm.2 0zm4.5 0zm-2.4-.8zm.1 0zm-15.9-.7c-1.4 0-2.5-1.1-2.5-2.5s1.1-2.5 2.5-2.5 2.5 1.1 2.5 2.5-1.1 2.5-2.5 2.5zm0-4a1.54 1.54 0 0 0-1.5 1.5 1.54 1.54 0 0 0 1.5 1.5 1.54 1.54 0 0 0 1.5-1.5 1.54 1.54 0 0 0-1.5-1.5z" fill="#4a90e2"/></svg>