<svg xmlns="http://www.w3.org/2000/svg" width="181" height="51"><path fill="#fff" d="M130.88 48.063c0-.938.603-1.71 1.588-1.71.93 0 1.586.717 1.586 1.71 0 .938-.656 1.71-1.586 1.71-.986-.056-1.588-.774-1.588-1.71zm4.27 0v-2.648H134v.662c-.383-.497-.93-.773-1.64-.773-1.48 0-2.627 1.16-2.627 2.76s1.148 2.76 2.627 2.76c.766 0 1.313-.276 1.64-.773v.662h1.15v-2.65zm38.418 0c0-.938.602-1.71 1.587-1.71.93 0 1.587.717 1.587 1.71 0 .938-.656 1.71-1.587 1.71-.985-.056-1.587-.774-1.587-1.71zm4.214 0v-4.746h-1.15v2.76c-.383-.497-.93-.773-1.642-.773-1.478 0-2.627 1.16-2.627 2.76s1.15 2.76 2.627 2.76c.767 0 1.313-.276 1.642-.773v.662h1.15v-2.65zm-28.512-1.766c.71 0 1.204.44 1.313 1.27h-2.736c.11-.718.6-1.27 1.423-1.27zm0-.994c-1.532 0-2.627 1.104-2.627 2.76s1.095 2.76 2.682 2.76c.766 0 1.532-.22 2.135-.718l-.548-.828c-.438.33-.985.552-1.532.552-.71 0-1.423-.33-1.588-1.27h3.887v-.44c.053-1.712-.932-2.815-2.41-2.815zm13.736 2.76c0-.938.602-1.71 1.588-1.71.93 0 1.586.717 1.586 1.71 0 .938-.656 1.71-1.586 1.71-.987-.056-1.588-.774-1.588-1.71zm4.215 0v-2.648h-1.15v.662c-.383-.497-.93-.773-1.642-.773-1.478 0-2.627 1.16-2.627 2.76s1.15 2.76 2.627 2.76c.767 0 1.313-.276 1.642-.773v.662h1.15v-2.65zm-10.617 0c0 1.6 1.094 2.76 2.8 2.76.767 0 1.313-.166 1.86-.607l-.547-.938c-.438.33-.875.497-1.368.497-.93 0-1.587-.662-1.587-1.71 0-.994.656-1.656 1.587-1.71.493 0 .93.166 1.368.496l.547-.938c-.547-.44-1.094-.607-1.86-.607-1.697-.001-2.8 1.158-2.8 2.76zm14.666-2.76a1.54 1.54 0 0 0-1.368.773v-.662h-1.15v5.297h1.15v-2.98c0-.884.384-1.38 1.095-1.38.22 0 .492.055.71.1l.33-1.104c-.22-.055-.55-.055-.767-.055zm-30.538.552c-.548-.387-1.314-.553-2.135-.553-1.313 0-2.19.662-2.19 1.71 0 .883.657 1.38 1.807 1.545l.547.056c.602.1.93.276.93.552 0 .387-.438.662-1.203.662a2.999 2.999 0 0 1-1.752-.552l-.547.884c.602.44 1.423.662 2.244.662 1.532 0 2.408-.718 2.408-1.71 0-.938-.712-1.436-1.807-1.6l-.547-.056c-.492-.055-.876-.166-.876-.496 0-.387.384-.607.985-.607.656 0 1.313.275 1.642.44l.493-.937zm14.72-.552c-.656 0-1.094.332-1.367.773v-.662h-1.15v5.297h1.15v-2.98c0-.884.383-1.38 1.094-1.38.22 0 .492.055.71.1l.33-1.104c-.22-.055-.548-.055-.767-.055zm-9.74.11h-1.86v-1.602h-1.15v1.602h-1.04v1.048h1.04v2.43c0 1.214.493 1.932 1.806 1.932a3.05 3.05 0 0 0 1.424-.387l-.33-.994c-.328.222-.712.276-.985.276-.547 0-.766-.33-.766-.883v-2.373h1.86v-1.048zm-17.02 5.297V47.4c0-1.27-.766-2.098-2.08-2.098-.657 0-1.368.22-1.86.938-.383-.606-.93-.938-1.752-.938-.547 0-1.094.166-1.53.773v-.662h-1.15V50.7h1.15v-2.924c0-.94.492-1.38 1.258-1.38s1.15.498 1.15 1.38V50.7h1.15v-2.924c0-.94.547-1.38 1.26-1.38.767 0 1.15.498 1.15 1.38V50.7h1.258z"/><path fill="#ccebf4" d="M140.35 36.418h17.24V5.183h-17.24z"/><path fill="#fff" d="M141.443 20.8a19.98 19.98 0 0 1 7.498-15.618c-3.34-2.65-7.553-4.25-12.15-4.25-10.89 0-19.7 8.885-19.7 19.867s8.81 19.868 19.7 19.868c4.598 0 8.812-1.602 12.15-4.25-4.543-3.586-7.498-9.27-7.498-15.617"/><path fill="#3192e5" d="M161.387 40.668c-4.54 0-8.703-1.602-12-4.25 4.54-3.643 7.405-9.27 7.405-15.618s-2.92-11.976-7.405-15.618c3.297-2.65 7.46-4.25 12-4.25 10.758 0 19.46 8.94 19.46 19.867 0 10.983-8.702 19.87-19.46 19.87z"/><path fill="#fff" d="M38.447 6.335L33.58 36.243h7.786l4.867-29.908zm-11.417 0l-7.423 20.57-.877-4.428-2.62-13.45s-.317-2.694-3.694-2.694H.144L0 6.84s3.754.78 8.145 3.42L14.9 36.242h8.112L35.41 6.334h-8.38zm52.676 19.328l4.09-11.192L86.1 25.663h-6.393zm8.568 10.58h7.148L89.19 6.335h-6.26c-2.89 0-3.595 2.23-3.595 2.23l-11.61 27.68h8.116l1.624-4.442h9.898l.913 4.442zM68.332 13.527l1.11-6.423S66.014 5.8 62.44 5.8c-3.864 0-13.04 1.69-13.04 9.9 0 7.727 10.77 7.823 10.77 11.88s-9.66 3.332-12.847.772l-1.158 6.715s3.477 1.69 8.8 1.69 13.33-2.752 13.33-10.24c0-7.775-10.866-8.5-10.866-11.88s7.58-2.947 10.913-1.11"/><path fill="#99d7ea" d="M18.73 22.478L16.11 9.03s-.317-2.693-3.694-2.693H.144L0 6.84s5.898 1.223 11.557 5.802c5.408 4.378 7.172 9.835 7.172 9.835"/></svg>