<svg xmlns="http://www.w3.org/2000/svg" width="46" height="46" viewBox="0 -18 46 46" fill="none" stroke="#fff" stroke-width="1.5" stroke-linejoin="round"><path d="M22.874-7.936c-7.728-.128-15.717 5.27-20.742 10.8a3.19 3.19 0 0 0 0 4.266c4.914 5.413 12.884 10.938 20.742 10.807 7.857.13 15.828-5.394 20.746-10.807 1.093-1.212 1.093-3.054 0-4.266-5.03-5.53-13.02-10.927-20.746-10.8z"/><path d="M30.06 5a7.19 7.19 0 0 1-7.188 7.188A7.19 7.19 0 0 1 15.684 5a7.19 7.19 0 0 1 7.188-7.188A7.19 7.19 0 0 1 30.06 5z"/></svg>