<svg id="Layer_1" data-name="Layer 1" xmlns="http://www.w3.org/2000/svg" width="25.38" height="25.62" viewBox="0 0 25.38 25.62">
  <defs>
    <style>
      .cls-1 {
        fill: #5b9de3;
      }
    </style>
  </defs>
  <title>search-icon</title>
  <path class="cls-1" d="M27.34,24.35l-5.1-5.11a.7.7,0,0,0-.5-.2h-1a10.46,10.46,0,1,0-1.86,1.8v1a.75.75,0,0,0,.21.51l5.1,5.1a1.21,1.21,0,0,0,1.69,0L27.34,26A1.19,1.19,0,0,0,27.34,24.35ZM12.68,18.83a6.26,6.26,0,1,1,6.26-6.26A6.26,6.26,0,0,1,12.68,18.83Z" transform="translate(-2.31 -2.19)"/>
</svg>
