<svg xmlns="http://www.w3.org/2000/svg" width="45" height="45" viewBox="-1.5 -3 45 45" fill="#fff"><path d="M28.873 17.24a1 1 0 0 1-.944-1.329c.27-.772.405-1.583.405-2.41v-3.334c0-4.043-3.3-7.333-7.334-7.333s-7.333 3.3-7.333 7.333V13.5a7.31 7.31 0 0 0 .356 2.265 1 1 0 1 1-1.903.617c-.302-.933-.455-1.902-.454-2.883v-3.332C11.666 5.02 15.853.834 21 .834s9.334 4.187 9.334 9.333V13.5c0 1.05-.174 2.083-.517 3.067-.142.413-.53.672-.943.672z"/><path d="M13.402 12.066c-.574 0-.93-.084-.978-.096a1 1 0 0 1-.728-1.213c.134-.532.673-.854 1.202-.73.135.03 2.82.557 5.654-2.985.193-.242.47-.383.796-.375a1 1 0 0 1 .784.4c.018.02 2.383 2.933 9.202 2.933a1 1 0 1 1 0 2c-5.57 0-8.596-1.777-9.937-2.88-2.382 2.532-4.722 2.946-5.995 2.946zm3.43 2.85a1.42 1.42 0 0 1-1.417-1.417 1.42 1.42 0 0 1 1.417-1.417A1.42 1.42 0 0 1 18.25 13.5a1.42 1.42 0 0 1-1.417 1.417zm0-2c-.322 0-.583.262-.583.583s.262.583.583.583.583-.262.583-.583-.26-.583-.583-.583z"/><path d="M25.166 14.917A1.42 1.42 0 0 1 23.75 13.5a1.42 1.42 0 0 1 1.416-1.417 1.42 1.42 0 0 1 1.418 1.417 1.42 1.42 0 0 1-1.418 1.417zm0-2c-.32 0-.582.262-.582.583s.26.583.582.583.584-.262.584-.583-.262-.583-.584-.583zM21 41.166a1 1 0 0 1-.254-.033l-14.6-3.84a2.67 2.67 0 0 1-1.99-2.577V28.5a1 1 0 1 1 2 0v6.215c0 .303.205.567.497.644L20 38.87V22.566L7.032 18.472c-.2-.064-.422-.026-.592.098a.67.67 0 0 0-.273.537v2.727a1 1 0 1 1-2 0v-2.728c.001-.847.4-1.65 1.1-2.15a2.68 2.68 0 0 1 2.376-.393L21.3 20.88a1 1 0 0 1 .698.954v18.332a1 1 0 0 1-.39.792.99.99 0 0 1-.61.208z"/><path d="M21 22.834a1 1 0 0 1-.301-1.953l13.667-4.315a2.68 2.68 0 0 1 2.379.393 2.72 2.72 0 0 1 1.1 2.146v2.73a1 1 0 1 1-2 0v-2.728a.67.67 0 0 0-.272-.536c-.17-.125-.394-.16-.596-.098l-13.665 4.314a.96.96 0 0 1-.302.048zm0 18.332a1 1 0 0 1-.254-1.967l14.6-3.84a.67.67 0 0 0 .499-.646V28.5a1 1 0 1 1 2 0v6.215a2.67 2.67 0 0 1-1.991 2.579l-14.588 3.84a1.03 1.03 0 0 1-.255.033z"/><path d="M6 29.5c-2.572 0-5.167-1.34-5.167-4.334S3.428 20.834 6 20.834c1 0 1.833.822 1.833 1.832v5C7.833 28.678 7 29.5 6 29.5zm-.167-6.663c-.77.03-3 .288-3 2.33s2.23 2.302 3 2.33v-4.66zM36 29.5c-1.012 0-1.834-.822-1.834-1.834v-5A1.84 1.84 0 0 1 36 20.834c2.57 0 5.166 1.34 5.166 4.332S38.57 29.5 36 29.5zm.166-6.663v4.66c.77-.03 3-.288 3-2.33s-2.23-2.3-3-2.33z"/></svg>