<svg xmlns="http://www.w3.org/2000/svg" width="45" height="45" viewBox="-2.5 -5 45 45" fill="#fff"><path d="M20 31c-6.065 0-11-4.935-11-11S13.935 9 20 9s11 4.935 11 11-4.935 11-11 11zm0-20c-4.962 0-9 4.038-9 9s4.038 9 9 9 9-4.037 9-9-4.037-9-9-9z"/><path d="M26.63 25.178c-3.12 0-6.118-1.33-8.247-3.765-2.777-3.175-3.498-7.567-1.878-11.463a1 1 0 1 1 1.847.767 8.94 8.94 0 0 0 1.537 9.379c2.272 2.6 5.757 3.658 9.092 2.772a1 1 0 0 1 1.224.708 1 1 0 0 1-.708 1.224 11.14 11.14 0 0 1-2.867.378zM20 11a1 1 0 0 1-1-1V1.667a1 1 0 1 1 2 0V10a1 1 0 0 1-1 1zm7.072 2.928c-.256 0-.512-.098-.707-.293a1 1 0 0 1 0-1.414l5.9-5.892a1 1 0 0 1 1.414 1.414l-5.9 5.892a.99.99 0 0 1-.707.293zM38.334 21H30a1 1 0 1 1 0-2h8.334a1 1 0 1 1 0 2zm-5.37 12.963c-.256 0-.512-.098-.707-.293l-5.9-5.9a1 1 0 0 1 1.414-1.414l5.9 5.9a1 1 0 0 1 0 1.414c-.195.195-.45.293-.707.293zM20 39.334a1 1 0 0 1-1-1V30a1 1 0 1 1 2 0v8.334a1 1 0 0 1-1 1zm-12.963-5.37c-.256 0-.512-.098-.707-.293a1 1 0 0 1 0-1.414l5.892-5.9a1 1 0 0 1 1.414 1.414l-5.892 5.9a1 1 0 0 1-.707.293zM10 21H1.667a1 1 0 1 1 0-2H10a1 1 0 1 1 0 2z"/><path d="M12.928 13.928c-.256 0-.512-.098-.707-.293l-5.9-5.9A1 1 0 0 1 7.744 6.33l5.892 5.892a1 1 0 0 1-.708 1.706zM10 21H6.667a1 1 0 1 1 0-2H10a1 1 0 1 1 0 2z"/></svg>