<svg xmlns="http://www.w3.org/2000/svg" width="45" height="45" viewBox="-0.5 -1 45 45" fill="#fff"><path d="M29.666 19.02a5.49 5.49 0 0 1-5.48-5.48 5.49 5.49 0 0 1 5.48-5.48 5.49 5.49 0 0 1 5.48 5.479 5.49 5.49 0 0 1-5.48 5.48zm0-8.958c-1.918 0-3.48 1.56-3.48 3.48s1.56 3.48 3.48 3.48 3.48-1.56 3.48-3.48-1.56-3.48-3.48-3.48zm0-3.582a1 1 0 0 1-1-1v-.896a1 1 0 1 1 2 0v.896a1 1 0 0 1-1 1zm-5.7 2.36c-.256 0-.512-.098-.707-.293l-.634-.634a1 1 0 1 1 1.414-1.415l.634.634a1 1 0 0 1 0 1.415c-.195.195-.45.293-.707.293zm-2.362 5.702h-.896a1 1 0 1 1 0-2h.896a1 1 0 1 1 0 2zm1.728 6.335a1 1 0 0 1-.707-1.707l.634-.634a1 1 0 1 1 1.414 1.415l-.634.634a1 1 0 0 1-.707.292zm6.334 2.623a1 1 0 0 1-1-1v-.896a1 1 0 1 1 2 0v.896a1 1 0 0 1-1 1zm6.336-2.623a1 1 0 0 1-.707-.292l-.635-.635a1 1 0 1 1 1.414-1.415l.635.634a1 1 0 0 1 0 1.415c-.195.195-.45.293-.707.293zm2.623-6.335h-.896a1 1 0 1 1 0-2h.896a1 1 0 1 1 0 2z"/><path d="M35.367 8.84c-.256 0-.512-.098-.707-.293a1 1 0 0 1 0-1.415l.635-.634a1 1 0 1 1 1.414 1.415l-.635.634c-.195.195-.45.293-.707.293zM40.2 43.2H3a3.49 3.49 0 0 1-.3-.014 2.73 2.73 0 0 1-.303-.043l-.284-.067-.28-.097-.278-.13c-.068-.034-.154-.085-.238-.14s-.17-.117-.248-.183a3.01 3.01 0 0 1-.215-.193l-.188-.206-.182-.247a2.77 2.77 0 0 1-.153-.262l-.12-.263a2.91 2.91 0 0 1-.098-.285l-.067-.28-.042-.295L0 40.2V3l.014-.297.04-.3.07-.3.097-.28.123-.266c.044-.086.095-.17.15-.255a2.74 2.74 0 0 1 .174-.238L.86.868 1.08.67l.243-.178A2.88 2.88 0 0 1 1.58.341l.266-.123.277-.095.286-.068.294-.042L3 0l37.505.014.287.04.297.07c.1.025.18.057.272.093l.268.123a2.62 2.62 0 0 1 .255.15l.234.17.23.208.197.22a2.77 2.77 0 0 1 .175.238 2.68 2.68 0 0 1 .15.259 2.86 2.86 0 0 1 .119.26l.096.277.068.286a2.74 2.74 0 0 1 .042.3 2.82 2.82 0 0 1 .015.291l-.014 37.5a3.05 3.05 0 0 1-.042.3l-.068.286a2.81 2.81 0 0 1-.095.276l-.13.28a2.84 2.84 0 0 1-.14.238l-.178.243a2.58 2.58 0 0 1-.208.23 2.54 2.54 0 0 1-.208.188l-.242.18-.263.152a2.75 2.75 0 0 1-.257.118l-.285.098a2.86 2.86 0 0 1-.279.066l-.302.043-.3.015zM1.083 2.403l.96.28-.038.207C2 2.927 2 2.963 2 3l.005 37.318.113.393.156.215c.003.003.073.065.076.068a9.36 9.36 0 0 0 .162.104l-.1 1.027.28-.96.102.023.214.02h37.2c.04 0 .078-.003.118-.006a.96.96 0 0 0 .097-.015l.2-.058.094-.044.777.68-.634-.773.077-.07.943.416-.84-.54c.003-.006.053-.092.056-.098l.094-.278c.006-.03.01-.063.014-.097l.006-.115V3c0-.04-.003-.078-.006-.117l-.038-.2c0-.001-.032-.095-.033-.096-.004-.007-.04-.1-.045-.097l-.1-.15-.2-.18-.468-.156L40.2 2H3l-.1.005-.206.038c-.001 0-.095.032-.096.033l-.717-.748.55.835-.206.188a7.73 7.73 0 0 1-.098.15l-1.033-.098zm27.52 33.785a1 1 0 0 1-.932-.638 14.74 14.74 0 0 0-9.848-8.85c-4.483-1.213-9.33-.213-12.966 2.676-.433.34-1.062.27-1.405-.16a1 1 0 0 1 .161-1.405c4.132-3.28 9.64-4.42 14.732-3.04a16.75 16.75 0 0 1 11.188 10.056 1 1 0 0 1-.569 1.294c-.117.046-.24.068-.36.068z"/><path d="M38.688 33.14a1 1 0 0 1-.798-.396c-1.272-1.677-3.204-2.75-5.3-2.94a7.51 7.51 0 0 0-5.747 1.93c-.406.374-1.04.346-1.412-.064a1 1 0 0 1 .064-1.412 9.53 9.53 0 0 1 7.276-2.445 9.54 9.54 0 0 1 6.712 3.724 1 1 0 0 1-.192 1.401c-.18.135-.393.202-.603.202z"/></svg>