<svg xmlns="http://www.w3.org/2000/svg" width="45" height="45" viewBox="-4 -11 45 45" fill="#fff"><path d="M9.02 29.355c-4.572 0-8.292-3.72-8.292-8.293s3.72-8.29 8.292-8.29 8.292 3.72 8.292 8.29-3.72 8.293-8.292 8.293zm0-14.584a6.3 6.3 0 0 0-6.292 6.291 6.3 6.3 0 0 0 6.292 6.293 6.3 6.3 0 0 0 6.292-6.293 6.3 6.3 0 0 0-6.292-6.291z"/><path d="M3.187 17.688c-.13 0-.265-.025-.394-.08a1 1 0 0 1-.525-1.313l4.376-10.21c.05-.117.122-.223.212-.313L8.9 3.74 11-1.892a1.01 1.01 0 0 1 .28-.402 4.36 4.36 0 0 1 5.7 0 1 1 0 0 1 .342.753v5.833a1 1 0 1 1-2 0v-5.328c-.783-.463-1.786-.428-2.536.104l-2.1 5.574a1 1 0 0 1-.229.358l-2.05 2.05-4.3 10.03a1 1 0 0 1-.92.607zM27.98 29.355c-4.57 0-8.3-3.72-8.3-8.293a8.3 8.3 0 0 1 8.29-8.29c4.57 0 8.293 3.72 8.293 8.3s-3.72 8.293-8.293 8.293zm0-14.584a6.3 6.3 0 0 0-6.291 6.291 6.3 6.3 0 0 0 6.291 6.293 6.3 6.3 0 0 0 6.293-6.293 6.3 6.3 0 0 0-6.293-6.29z"/><path d="M33.813 17.688a1 1 0 0 1-.919-.606l-4.3-10.03L26.543 5a1.01 1.01 0 0 1-.228-.35l-2.1-5.486c-.75-.533-1.753-.57-2.538-.106v5.236a1 1 0 1 1-2 0V-1.45a1 1 0 0 1 .343-.753c1.62-1.415 4.068-1.415 5.7 0 .124.107.22.244.277.397l2.1 5.542 2.036 2.036c.1.1.162.196.212.313l4.375 10.208a1 1 0 0 1-.525 1.313.98.98 0 0 1-.392.08zm-9.48-6.563a1 1 0 0 1-1-1c0-.763-1.928-1.917-4.834-1.917s-4.833 1.153-4.833 1.917a1 1 0 1 1-2 0c0-2.233 2.938-3.917 6.833-3.917s6.834 1.684 6.834 3.917a1 1 0 0 1-1 1z"/><path d="M16.313 22.063a1 1 0 0 1-1-1V7.42a1 1 0 0 1 2 0v13.642a1 1 0 0 1-1 1.001zm4.375 0a1 1 0 0 1-1-1V7.42a1 1 0 1 1 2 0v13.642a1 1 0 0 1-1 1.001z"/></svg>