<svg xmlns="http://www.w3.org/2000/svg" width="45" height="45" fill="#fff"><path d="M35.04 39.66H23.396c-3.234 0-4.914-.35-7.24-.83l-5.4-.97a.75.75 0 0 1-.644-.742V21.89a.75.75 0 0 1 .75-.75c3.81 0 10.896-7.442 10.896-14.48 0-1.743 1.248-3.11 2.842-3.11.663 0 2.912.303 4.005 4.195.735 2.617-.667 6.933-1.41 8.914h13.23c1.896 0 3.438 1.542 3.438 3.438 0 1.456-.976 3.54-2.52 4.155.458.584.73 1.32.73 2.116 0 1.565-1.052 2.89-2.486 3.304a3.42 3.42 0 0 1 .233.353c.613 1.06.613 2.378 0 3.438a3.44 3.44 0 0 1-2.027 1.584 3.42 3.42 0 0 1 .696 2.072c0 1.685-1.157 2.54-3.438 2.54zm-23.437-3.2c2.073.313 3.545.618 4.858.89 2.238.465 3.854.8 6.934.8H35.04c1.938 0 1.938-.578 1.938-1.042a1.94 1.94 0 0 0-1.938-1.938.75.75 0 1 1 0-1.5h1.793a1.94 1.94 0 0 0 1.677-2.907 1.94 1.94 0 0 0-1.677-.969.75.75 0 1 1 0-1.5h1.79a1.94 1.94 0 0 0 1.938-1.938 1.94 1.94 0 0 0-1.938-1.938.75.75 0 1 1 0-1.5h1.79c.96 0 1.938-1.648 1.938-2.834a1.94 1.94 0 0 0-1.938-1.938H26.084a.75.75 0 0 1-.626-.337c-.14-.2-.163-.477-.063-.708.718-1.678 2.435-6.56 1.76-8.964-.643-2.286-1.744-3.1-2.562-3.1-.765 0-1.342.692-1.342 1.61 0 7.04-6.772 15.128-11.646 15.917V36.47z"/><path d="M10.854 41.45H1.896a.75.75 0 0 1-.75-.75V19.2a.75.75 0 0 1 .75-.75h8.958a.75.75 0 0 1 .75.75v21.5a.75.75 0 0 1-.75.75zm-8.208-1.5h7.458v-20H2.646v20zm4.177-2.082a1.2 1.2 0 0 1-1.198-1.198 1.2 1.2 0 0 1 1.198-1.197 1.2 1.2 0 0 1 1.198 1.197 1.2 1.2 0 0 1-1.198 1.198zm0-1.5c-.167 0-.302.136-.302.302s.135.303.302.303.302-.136.302-.303-.136-.302-.302-.302z"/></svg>