<svg xmlns="http://www.w3.org/2000/svg" viewBox="0 0 60 46" fill="#4a90e2"><path d="M30 33c-5.5 0-10-4.5-10-10s4.5-10 10-10 10 4.5 10 10-4.5 10-10 10zm0-19c-4.9 0-9 4-9 9a8.96 8.96 0 0 0 9 9c4.9 0 9-4 9-9s-4.1-9-9-9zm0 8.2a3.01 3.01 0 0 1-3-3 3.08 3.08 0 0 1 3-3 3.08 3.08 0 0 1 3 3 3.01 3.01 0 0 1-3 3zm0-5.1c-1.1 0-2 .9-2 2s.9 2 2 2 2-.9 2-2-.9-2-2-2zm0 12.3c-1.9 0-3.7-.4-5.1-1.1l-.2-.1-.1-.4v-.4c0-2.5 2.4-4.6 5.4-4.6s5.4 2 5.4 4.6v.4l-.1.4-.2.1c-1.4.8-3.2 1.1-5.1 1.1zm-4.4-1.8c1.2.6 2.8.9 4.4.9s3.2-.3 4.4-.9v-.1c0-2-2-3.6-4.4-3.6s-4.4 1.6-4.4 3.6v.1z"/></svg>